# xmcd
# Track frame offsets:
# 150
# 12420
# 23821
# 37590
# 50474
# 63719
# 78417
# 89382
# 102585
# 114580
# 126808
# 139147
# 150443
# 164755
# 174478
# 187788
# 198377
# 208917
#
# Disc length: 2916 seconds
# Revision: 3
# Processed by: cddbd v1.5PL3 Copyright (c) Steve Scherf et al.
# Submitted via: VisiTrax 2.9.9.202 - For more info visit www.synapsa.com
#
DISCID=f30b6212
DTITLE=Various Artist - Blues collection vol. 5 Hard Luck Blues - CD 1
DYEAR=2001
DGENRE=Blues
TTITLE0=Sonny Terry - Whoopin' The Blues
TTITLE1=Clarence 'Gatemouth' Brown - Without Me Baby
TTITLE2=Walter Brown - Gonna Play With Your Woman
TTITLE3=Floyd Dixon - Don't Cry Now Baby
TTITLE4=Lightnin' Hopkins - Mean And Evil Blues
TTITLE5=Amos Milburn - Hard Luck Blues
TTITLE6=Julia Lee and Her Boy Friends - Don't Save It Too Long (The Money Song)
TTITLE7=John Lee Hooker - No Friend Around
TTITLE8=Tiny Kennedy - Sister Flat Top
TTITLE9=Floyd Dixon - Blues For Cuba
TTITLE10=Bus Moten and His Men - You'll Wind Up On Top
TTITLE11=T Bone Walker - No Reason
TTITLE12=Joe Turner - Milk And Butter Blues
TTITLE13=Walker Brown - Hello And Goodbye
TTITLE14=John Lee Hooker - Wellfare Blues
TTITLE15=Amos Milburn - Alladin Boogie
TTITLE16=Lowell Fulson - Chuck With The Boys
TTITLE17=Jay McShann - Cover Up
EXTD=
EXTT0=
EXTT1=
EXTT2=
EXTT3=
EXTT4=
EXTT5=
EXTT6=
EXTT7=
EXTT8=
EXTT9=
EXTT10=
EXTT11=
EXTT12=
EXTT13=
EXTT14=
EXTT15=
EXTT16=
EXTT17=
PLAYORDER=
